<mxfile host="Electron" agent="Mozilla/5.0 (Windows NT 10.0; Win64; x64) AppleWebKit/537.36 (KHTML, like Gecko) draw.io/27.0.5 Chrome/134.0.6998.205 Electron/35.3.0 Safari/537.36" version="27.0.5">
  <diagram name="Page-1" id="5aWwwL06ccBI_TksMus4">
    <mxGraphModel dx="1747" dy="1147" grid="1" gridSize="10" guides="1" tooltips="1" connect="1" arrows="1" fold="1" page="1" pageScale="1" pageWidth="850" pageHeight="1100" math="0" shadow="0">
      <root>
        <mxCell id="0" />
        <mxCell id="1" parent="0" />
        <mxCell id="LhowR_q6MDWGsAfgS9AQ-1" value="" style="rounded=0;whiteSpace=wrap;html=1;fillColor=#fff2cc;strokeColor=#d6b656;fillStyle=zigzag-line;" vertex="1" parent="1">
          <mxGeometry x="65" y="140" width="160" height="560" as="geometry" />
        </mxCell>
        <mxCell id="LhowR_q6MDWGsAfgS9AQ-2" value="&lt;font style=&quot;font-size: 27px;&quot;&gt;&lt;b&gt;Data Flow Diagram&lt;/b&gt;&lt;/font&gt;" style="text;html=1;align=center;verticalAlign=middle;whiteSpace=wrap;rounded=0;" vertex="1" parent="1">
          <mxGeometry x="90" y="50" width="280" height="30" as="geometry" />
        </mxCell>
        <mxCell id="LhowR_q6MDWGsAfgS9AQ-3" value="" style="image;aspect=fixed;html=1;points=[];align=center;fontSize=12;image=img/lib/azure2/general/Folder_Blank.svg;" vertex="1" parent="1">
          <mxGeometry x="106" y="250" width="69" height="56.00000000000001" as="geometry" />
        </mxCell>
        <mxCell id="LhowR_q6MDWGsAfgS9AQ-5" value="" style="html=1;verticalLabelPosition=bottom;align=center;labelBackgroundColor=#ffffff;verticalAlign=top;strokeWidth=2;strokeColor=#0080F0;shadow=0;dashed=0;shape=mxgraph.ios7.icons.folder;" vertex="1" parent="1">
          <mxGeometry x="150" y="280" width="40" height="40" as="geometry" />
        </mxCell>
        <mxCell id="LhowR_q6MDWGsAfgS9AQ-8" value="&lt;b&gt;&lt;font style=&quot;font-size: 15px;&quot;&gt;CRM&lt;/font&gt;&lt;/b&gt;" style="text;html=1;align=center;verticalAlign=middle;whiteSpace=wrap;rounded=0;" vertex="1" parent="1">
          <mxGeometry x="110.5" y="210" width="60" height="30" as="geometry" />
        </mxCell>
        <mxCell id="LhowR_q6MDWGsAfgS9AQ-10" value="" style="rounded=1;whiteSpace=wrap;html=1;fillColor=#ffe6cc;strokeColor=#d79b00;fillStyle=hatch;" vertex="1" parent="1">
          <mxGeometry x="410" y="140" width="240" height="560" as="geometry" />
        </mxCell>
        <mxCell id="LhowR_q6MDWGsAfgS9AQ-11" value="" style="rounded=1;whiteSpace=wrap;html=1;" vertex="1" parent="1">
          <mxGeometry x="80.5" y="120" width="120" height="40" as="geometry" />
        </mxCell>
        <mxCell id="LhowR_q6MDWGsAfgS9AQ-12" value="" style="rounded=1;whiteSpace=wrap;html=1;" vertex="1" parent="1">
          <mxGeometry x="435" y="120" width="190" height="40" as="geometry" />
        </mxCell>
        <mxCell id="LhowR_q6MDWGsAfgS9AQ-13" value="&lt;b&gt;&lt;font style=&quot;font-size: 20px;&quot;&gt;SOURCES&lt;/font&gt;&lt;/b&gt;" style="text;html=1;align=center;verticalAlign=middle;whiteSpace=wrap;rounded=0;" vertex="1" parent="1">
          <mxGeometry x="115" y="125" width="60" height="30" as="geometry" />
        </mxCell>
        <mxCell id="LhowR_q6MDWGsAfgS9AQ-14" value="&lt;b&gt;&lt;font style=&quot;font-size: 20px;&quot;&gt;Bronze Layer&lt;/font&gt;&lt;/b&gt;" style="text;html=1;align=center;verticalAlign=middle;whiteSpace=wrap;rounded=0;" vertex="1" parent="1">
          <mxGeometry x="455" y="125" width="150" height="30" as="geometry" />
        </mxCell>
        <mxCell id="LhowR_q6MDWGsAfgS9AQ-15" value="" style="rounded=1;whiteSpace=wrap;html=1;fillColor=#ffe6cc;strokeColor=#d79b00;" vertex="1" parent="1">
          <mxGeometry x="435" y="190" width="190" height="40" as="geometry" />
        </mxCell>
        <mxCell id="LhowR_q6MDWGsAfgS9AQ-19" value="" style="image;aspect=fixed;html=1;points=[];align=center;fontSize=12;image=img/lib/azure2/general/Folder_Blank.svg;" vertex="1" parent="1">
          <mxGeometry x="103" y="500" width="69" height="56.00000000000001" as="geometry" />
        </mxCell>
        <mxCell id="LhowR_q6MDWGsAfgS9AQ-20" value="" style="html=1;verticalLabelPosition=bottom;align=center;labelBackgroundColor=#ffffff;verticalAlign=top;strokeWidth=2;strokeColor=#0080F0;shadow=0;dashed=0;shape=mxgraph.ios7.icons.folder;" vertex="1" parent="1">
          <mxGeometry x="147" y="530" width="40" height="40" as="geometry" />
        </mxCell>
        <mxCell id="LhowR_q6MDWGsAfgS9AQ-21" value="&lt;b&gt;&lt;font style=&quot;font-size: 15px;&quot;&gt;ERP&lt;/font&gt;&lt;/b&gt;" style="text;html=1;align=center;verticalAlign=middle;whiteSpace=wrap;rounded=0;" vertex="1" parent="1">
          <mxGeometry x="107.5" y="460" width="60" height="30" as="geometry" />
        </mxCell>
        <mxCell id="LhowR_q6MDWGsAfgS9AQ-23" value="" style="rounded=1;whiteSpace=wrap;html=1;fillColor=#ffe6cc;strokeColor=#d79b00;" vertex="1" parent="1">
          <mxGeometry x="435" y="258" width="190" height="40" as="geometry" />
        </mxCell>
        <mxCell id="LhowR_q6MDWGsAfgS9AQ-24" value="" style="rounded=1;whiteSpace=wrap;html=1;fillColor=#ffe6cc;strokeColor=#d79b00;" vertex="1" parent="1">
          <mxGeometry x="435" y="340" width="190" height="40" as="geometry" />
        </mxCell>
        <mxCell id="LhowR_q6MDWGsAfgS9AQ-25" value="" style="rounded=1;whiteSpace=wrap;html=1;fillColor=#ffe6cc;strokeColor=#d79b00;" vertex="1" parent="1">
          <mxGeometry x="435" y="620" width="190" height="40" as="geometry" />
        </mxCell>
        <mxCell id="LhowR_q6MDWGsAfgS9AQ-88" style="edgeStyle=orthogonalEdgeStyle;rounded=0;orthogonalLoop=1;jettySize=auto;html=1;entryX=0;entryY=0.5;entryDx=0;entryDy=0;" edge="1" parent="1" source="LhowR_q6MDWGsAfgS9AQ-26" target="LhowR_q6MDWGsAfgS9AQ-48">
          <mxGeometry relative="1" as="geometry">
            <mxPoint x="820" y="561" as="targetPoint" />
          </mxGeometry>
        </mxCell>
        <mxCell id="LhowR_q6MDWGsAfgS9AQ-26" value="" style="rounded=1;whiteSpace=wrap;html=1;fillColor=#ffe6cc;strokeColor=#d79b00;" vertex="1" parent="1">
          <mxGeometry x="435" y="540" width="190" height="40" as="geometry" />
        </mxCell>
        <mxCell id="LhowR_q6MDWGsAfgS9AQ-87" style="edgeStyle=orthogonalEdgeStyle;rounded=0;orthogonalLoop=1;jettySize=auto;html=1;entryX=0;entryY=0.5;entryDx=0;entryDy=0;" edge="1" parent="1" source="LhowR_q6MDWGsAfgS9AQ-27" target="LhowR_q6MDWGsAfgS9AQ-49">
          <mxGeometry relative="1" as="geometry" />
        </mxCell>
        <mxCell id="LhowR_q6MDWGsAfgS9AQ-27" value="" style="rounded=1;whiteSpace=wrap;html=1;fillColor=#ffe6cc;strokeColor=#d79b00;" vertex="1" parent="1">
          <mxGeometry x="435" y="460" width="190" height="40" as="geometry" />
        </mxCell>
        <mxCell id="LhowR_q6MDWGsAfgS9AQ-29" value="" style="endArrow=classic;html=1;rounded=1;exitX=1;exitY=0.25;exitDx=0;exitDy=0;curved=0;" edge="1" parent="1">
          <mxGeometry width="50" height="50" relative="1" as="geometry">
            <mxPoint x="225" y="277" as="sourcePoint" />
            <mxPoint x="440" y="279" as="targetPoint" />
          </mxGeometry>
        </mxCell>
        <mxCell id="LhowR_q6MDWGsAfgS9AQ-31" value="" style="endArrow=classic;startArrow=classic;html=1;rounded=0;entryX=0;entryY=0.5;entryDx=0;entryDy=0;exitX=0;exitY=0.5;exitDx=0;exitDy=0;" edge="1" parent="1" source="LhowR_q6MDWGsAfgS9AQ-24" target="LhowR_q6MDWGsAfgS9AQ-15">
          <mxGeometry width="50" height="50" relative="1" as="geometry">
            <mxPoint x="320" y="450" as="sourcePoint" />
            <mxPoint x="320" y="120" as="targetPoint" />
            <Array as="points">
              <mxPoint x="320" y="360" />
              <mxPoint x="320" y="280" />
              <mxPoint x="320" y="210" />
            </Array>
          </mxGeometry>
        </mxCell>
        <mxCell id="LhowR_q6MDWGsAfgS9AQ-32" value="" style="endArrow=classic;html=1;rounded=0;exitX=1;exitY=0.25;exitDx=0;exitDy=0;" edge="1" parent="1">
          <mxGeometry width="50" height="50" relative="1" as="geometry">
            <mxPoint x="225" y="552" as="sourcePoint" />
            <mxPoint x="440" y="554" as="targetPoint" />
          </mxGeometry>
        </mxCell>
        <mxCell id="LhowR_q6MDWGsAfgS9AQ-33" value="" style="endArrow=classic;startArrow=classic;html=1;rounded=0;entryX=0;entryY=0.5;entryDx=0;entryDy=0;exitX=0;exitY=0.5;exitDx=0;exitDy=0;" edge="1" parent="1">
          <mxGeometry width="50" height="50" relative="1" as="geometry">
            <mxPoint x="435" y="635" as="sourcePoint" />
            <mxPoint x="435" y="485" as="targetPoint" />
            <Array as="points">
              <mxPoint x="320" y="635" />
              <mxPoint x="320" y="555" />
              <mxPoint x="320" y="485" />
            </Array>
          </mxGeometry>
        </mxCell>
        <mxCell id="LhowR_q6MDWGsAfgS9AQ-84" style="edgeStyle=orthogonalEdgeStyle;rounded=0;orthogonalLoop=1;jettySize=auto;html=1;entryX=0;entryY=0.5;entryDx=0;entryDy=0;" edge="1" parent="1" source="LhowR_q6MDWGsAfgS9AQ-34" target="LhowR_q6MDWGsAfgS9AQ-44">
          <mxGeometry relative="1" as="geometry" />
        </mxCell>
        <mxCell id="LhowR_q6MDWGsAfgS9AQ-34" value="&lt;span style=&quot;font-size: 15px;&quot;&gt;crm_sales_details&lt;/span&gt;" style="text;html=1;align=center;verticalAlign=middle;whiteSpace=wrap;rounded=0;" vertex="1" parent="1">
          <mxGeometry x="455" y="195" width="150" height="30" as="geometry" />
        </mxCell>
        <mxCell id="LhowR_q6MDWGsAfgS9AQ-85" style="edgeStyle=orthogonalEdgeStyle;rounded=0;orthogonalLoop=1;jettySize=auto;html=1;entryX=0;entryY=0.5;entryDx=0;entryDy=0;" edge="1" parent="1" source="LhowR_q6MDWGsAfgS9AQ-36" target="LhowR_q6MDWGsAfgS9AQ-45">
          <mxGeometry relative="1" as="geometry" />
        </mxCell>
        <mxCell id="LhowR_q6MDWGsAfgS9AQ-36" value="&lt;span style=&quot;font-size: 15px;&quot;&gt;crm_cust_info&lt;/span&gt;" style="text;html=1;align=center;verticalAlign=middle;whiteSpace=wrap;rounded=0;" vertex="1" parent="1">
          <mxGeometry x="455" y="263" width="150" height="30" as="geometry" />
        </mxCell>
        <mxCell id="LhowR_q6MDWGsAfgS9AQ-86" style="edgeStyle=orthogonalEdgeStyle;rounded=0;orthogonalLoop=1;jettySize=auto;html=1;" edge="1" parent="1" source="LhowR_q6MDWGsAfgS9AQ-37">
          <mxGeometry relative="1" as="geometry">
            <mxPoint x="830.0000000000002" y="360" as="targetPoint" />
          </mxGeometry>
        </mxCell>
        <mxCell id="LhowR_q6MDWGsAfgS9AQ-37" value="&lt;span style=&quot;font-size: 15px;&quot;&gt;crm_prd&lt;/span&gt;&lt;span style=&quot;color: rgba(0, 0, 0, 0); font-family: monospace; font-size: 0px; text-align: start; text-wrap-mode: nowrap;&quot;&gt;%3CmxGraphModel%3E%3Croot%3E%3CmxCell%20id%3D%220%22%2F%3E%3CmxCell%20id%3D%221%22%20parent%3D%220%22%2F%3E%3CmxCell%20id%3D%222%22%20value%3D%22%26lt%3Bspan%20style%3D%26quot%3Bfont-size%3A%2015px%3B%26quot%3B%26gt%3Bcrm_sales_details%26lt%3B%2Fspan%26gt%3B%22%20style%3D%22text%3Bhtml%3D1%3Balign%3Dcenter%3BverticalAlign%3Dmiddle%3BwhiteSpace%3Dwrap%3Brounded%3D0%3B%22%20vertex%3D%221%22%20parent%3D%221%22%3E%3CmxGeometry%20x%3D%22455%22%20y%3D%22195%22%20width%3D%22150%22%20height%3D%2230%22%20as%3D%22geometry%22%2F%3E%3C%2FmxCell%3E%3C%2Froot%3E%3C%2FmxGraphModel%3E&lt;/span&gt;&lt;span style=&quot;font-size: 15px;&quot;&gt;_info&lt;/span&gt;" style="text;html=1;align=center;verticalAlign=middle;whiteSpace=wrap;rounded=0;" vertex="1" parent="1">
          <mxGeometry x="455" y="345" width="150" height="30" as="geometry" />
        </mxCell>
        <mxCell id="LhowR_q6MDWGsAfgS9AQ-38" value="&lt;span style=&quot;font-size: 15px;&quot;&gt;erp_cust_az12&lt;/span&gt;" style="text;html=1;align=center;verticalAlign=middle;whiteSpace=wrap;rounded=0;" vertex="1" parent="1">
          <mxGeometry x="455" y="465" width="150" height="30" as="geometry" />
        </mxCell>
        <mxCell id="LhowR_q6MDWGsAfgS9AQ-39" value="&lt;span style=&quot;font-size: 15px;&quot;&gt;erp_loc_a101&lt;/span&gt;" style="text;html=1;align=center;verticalAlign=middle;whiteSpace=wrap;rounded=0;" vertex="1" parent="1">
          <mxGeometry x="455" y="545" width="150" height="30" as="geometry" />
        </mxCell>
        <mxCell id="LhowR_q6MDWGsAfgS9AQ-89" style="edgeStyle=orthogonalEdgeStyle;rounded=0;orthogonalLoop=1;jettySize=auto;html=1;entryX=0;entryY=0.5;entryDx=0;entryDy=0;" edge="1" parent="1" source="LhowR_q6MDWGsAfgS9AQ-40" target="LhowR_q6MDWGsAfgS9AQ-47">
          <mxGeometry relative="1" as="geometry" />
        </mxCell>
        <mxCell id="LhowR_q6MDWGsAfgS9AQ-40" value="&lt;span style=&quot;font-size: 15px;&quot;&gt;erp_px_cat_g1v2&lt;/span&gt;" style="text;html=1;align=center;verticalAlign=middle;whiteSpace=wrap;rounded=0;" vertex="1" parent="1">
          <mxGeometry x="455" y="625" width="150" height="30" as="geometry" />
        </mxCell>
        <mxCell id="LhowR_q6MDWGsAfgS9AQ-41" value="" style="rounded=1;whiteSpace=wrap;html=1;fillColor=#f5f5f5;strokeColor=#666666;fillStyle=hatch;fontColor=#333333;" vertex="1" parent="1">
          <mxGeometry x="810" y="140" width="240" height="560" as="geometry" />
        </mxCell>
        <mxCell id="LhowR_q6MDWGsAfgS9AQ-42" value="" style="rounded=1;whiteSpace=wrap;html=1;" vertex="1" parent="1">
          <mxGeometry x="835" y="120" width="190" height="40" as="geometry" />
        </mxCell>
        <mxCell id="LhowR_q6MDWGsAfgS9AQ-96" style="rounded=0;orthogonalLoop=1;jettySize=auto;html=1;entryX=0;entryY=0.5;entryDx=0;entryDy=0;exitX=1;exitY=0.5;exitDx=0;exitDy=0;" edge="1" parent="1" source="LhowR_q6MDWGsAfgS9AQ-44" target="LhowR_q6MDWGsAfgS9AQ-93">
          <mxGeometry relative="1" as="geometry" />
        </mxCell>
        <mxCell id="LhowR_q6MDWGsAfgS9AQ-44" value="" style="rounded=1;whiteSpace=wrap;html=1;fillColor=#f5f5f5;strokeColor=#666666;fontColor=#333333;" vertex="1" parent="1">
          <mxGeometry x="835" y="190" width="190" height="40" as="geometry" />
        </mxCell>
        <mxCell id="LhowR_q6MDWGsAfgS9AQ-97" style="rounded=0;orthogonalLoop=1;jettySize=auto;html=1;entryX=0;entryY=0.5;entryDx=0;entryDy=0;exitX=1;exitY=0.5;exitDx=0;exitDy=0;" edge="1" parent="1" source="LhowR_q6MDWGsAfgS9AQ-45" target="LhowR_q6MDWGsAfgS9AQ-94">
          <mxGeometry relative="1" as="geometry" />
        </mxCell>
        <mxCell id="LhowR_q6MDWGsAfgS9AQ-45" value="" style="rounded=1;whiteSpace=wrap;html=1;fillColor=#f5f5f5;strokeColor=#666666;fontColor=#333333;" vertex="1" parent="1">
          <mxGeometry x="835" y="258" width="190" height="40" as="geometry" />
        </mxCell>
        <mxCell id="LhowR_q6MDWGsAfgS9AQ-98" style="rounded=0;orthogonalLoop=1;jettySize=auto;html=1;entryX=0;entryY=0.5;entryDx=0;entryDy=0;exitX=1;exitY=0.5;exitDx=0;exitDy=0;" edge="1" parent="1" source="LhowR_q6MDWGsAfgS9AQ-46" target="LhowR_q6MDWGsAfgS9AQ-95">
          <mxGeometry relative="1" as="geometry" />
        </mxCell>
        <mxCell id="LhowR_q6MDWGsAfgS9AQ-46" value="" style="rounded=1;whiteSpace=wrap;html=1;fillColor=#f5f5f5;strokeColor=#666666;fontColor=#333333;" vertex="1" parent="1">
          <mxGeometry x="835" y="340" width="190" height="40" as="geometry" />
        </mxCell>
        <mxCell id="LhowR_q6MDWGsAfgS9AQ-102" style="rounded=0;orthogonalLoop=1;jettySize=auto;html=1;entryX=0;entryY=0.5;entryDx=0;entryDy=0;exitX=1;exitY=0.5;exitDx=0;exitDy=0;" edge="1" parent="1" source="LhowR_q6MDWGsAfgS9AQ-47" target="LhowR_q6MDWGsAfgS9AQ-95">
          <mxGeometry relative="1" as="geometry" />
        </mxCell>
        <mxCell id="LhowR_q6MDWGsAfgS9AQ-47" value="" style="rounded=1;whiteSpace=wrap;html=1;fillColor=#f5f5f5;strokeColor=#666666;fontColor=#333333;" vertex="1" parent="1">
          <mxGeometry x="835" y="620" width="190" height="40" as="geometry" />
        </mxCell>
        <mxCell id="LhowR_q6MDWGsAfgS9AQ-101" style="rounded=0;orthogonalLoop=1;jettySize=auto;html=1;entryX=0;entryY=0.5;entryDx=0;entryDy=0;exitX=1;exitY=0.5;exitDx=0;exitDy=0;" edge="1" parent="1" source="LhowR_q6MDWGsAfgS9AQ-48" target="LhowR_q6MDWGsAfgS9AQ-94">
          <mxGeometry relative="1" as="geometry" />
        </mxCell>
        <mxCell id="LhowR_q6MDWGsAfgS9AQ-48" value="" style="rounded=1;whiteSpace=wrap;html=1;fillColor=#f5f5f5;strokeColor=#666666;fontColor=#333333;" vertex="1" parent="1">
          <mxGeometry x="835" y="540" width="190" height="40" as="geometry" />
        </mxCell>
        <mxCell id="LhowR_q6MDWGsAfgS9AQ-99" style="rounded=0;orthogonalLoop=1;jettySize=auto;html=1;entryX=0;entryY=0.5;entryDx=0;entryDy=0;exitX=1;exitY=0.5;exitDx=0;exitDy=0;" edge="1" parent="1" source="LhowR_q6MDWGsAfgS9AQ-49" target="LhowR_q6MDWGsAfgS9AQ-94">
          <mxGeometry relative="1" as="geometry" />
        </mxCell>
        <mxCell id="LhowR_q6MDWGsAfgS9AQ-49" value="" style="rounded=1;whiteSpace=wrap;html=1;fillColor=#f5f5f5;strokeColor=#666666;fontColor=#333333;" vertex="1" parent="1">
          <mxGeometry x="835" y="460" width="190" height="40" as="geometry" />
        </mxCell>
        <mxCell id="LhowR_q6MDWGsAfgS9AQ-56" value="&lt;span style=&quot;font-size: 15px;&quot;&gt;crm_cust_info&lt;/span&gt;" style="text;html=1;align=center;verticalAlign=middle;whiteSpace=wrap;rounded=0;" vertex="1" parent="1">
          <mxGeometry x="900" y="263" width="60" height="30" as="geometry" />
        </mxCell>
        <mxCell id="LhowR_q6MDWGsAfgS9AQ-72" value="&lt;span style=&quot;font-size: 15px;&quot;&gt;crm_sales_details&lt;/span&gt;" style="text;html=1;align=center;verticalAlign=middle;whiteSpace=wrap;rounded=0;" vertex="1" parent="1">
          <mxGeometry x="900" y="195" width="60" height="30" as="geometry" />
        </mxCell>
        <mxCell id="LhowR_q6MDWGsAfgS9AQ-73" value="&lt;span style=&quot;font-size: 15px;&quot;&gt;crm_prd_info&lt;/span&gt;" style="text;html=1;align=center;verticalAlign=middle;whiteSpace=wrap;rounded=0;" vertex="1" parent="1">
          <mxGeometry x="900" y="345" width="60" height="30" as="geometry" />
        </mxCell>
        <mxCell id="LhowR_q6MDWGsAfgS9AQ-74" value="&lt;span style=&quot;font-size: 15px;&quot;&gt;erp_cust_az12&lt;/span&gt;" style="text;html=1;align=center;verticalAlign=middle;whiteSpace=wrap;rounded=0;" vertex="1" parent="1">
          <mxGeometry x="900" y="465" width="60" height="30" as="geometry" />
        </mxCell>
        <mxCell id="LhowR_q6MDWGsAfgS9AQ-75" value="&lt;span style=&quot;font-size: 15px;&quot;&gt;erp_loc_a101&lt;/span&gt;" style="text;html=1;align=center;verticalAlign=middle;whiteSpace=wrap;rounded=0;" vertex="1" parent="1">
          <mxGeometry x="900" y="545" width="60" height="30" as="geometry" />
        </mxCell>
        <mxCell id="LhowR_q6MDWGsAfgS9AQ-76" value="&lt;span style=&quot;font-size: 15px;&quot;&gt;erp_px_cat_g1v2&lt;/span&gt;" style="text;html=1;align=center;verticalAlign=middle;whiteSpace=wrap;rounded=0;" vertex="1" parent="1">
          <mxGeometry x="900" y="625" width="60" height="30" as="geometry" />
        </mxCell>
        <mxCell id="LhowR_q6MDWGsAfgS9AQ-90" value="" style="rounded=1;whiteSpace=wrap;html=1;fillColor=#fff2cc;strokeColor=#d6b656;fillStyle=hatch;" vertex="1" parent="1">
          <mxGeometry x="1250" y="140" width="240" height="560" as="geometry" />
        </mxCell>
        <mxCell id="LhowR_q6MDWGsAfgS9AQ-91" value="" style="rounded=1;whiteSpace=wrap;html=1;fillStyle=solid;" vertex="1" parent="1">
          <mxGeometry x="1275" y="125" width="190" height="40" as="geometry" />
        </mxCell>
        <mxCell id="LhowR_q6MDWGsAfgS9AQ-92" value="&lt;b&gt;&lt;font style=&quot;font-size: 20px;&quot;&gt;Silver Lay&lt;/font&gt;&lt;/b&gt;&lt;span style=&quot;color: rgba(0, 0, 0, 0); font-family: monospace; font-size: 0px; text-align: start; text-wrap-mode: nowrap;&quot;&gt;%3CmxGraphModel%3E%3Croot%3E%3CmxCell%20id%3D%220%22%2F%3E%3CmxCell%20id%3D%221%22%20parent%3D%220%22%2F%3E%3CmxCell%20id%3D%222%22%20value%3D%22%22%20style%3D%22rounded%3D1%3BwhiteSpace%3Dwrap%3Bhtml%3D1%3B%22%20vertex%3D%221%22%20parent%3D%221%22%3E%3CmxGeometry%20x%3D%22835%22%20y%3D%22120%22%20width%3D%22190%22%20height%3D%2240%22%20as%3D%22geometry%22%2F%3E%3C%2FmxCell%3E%3C%2Froot%3E%3C%2FmxGraphModel%3E&lt;/span&gt;&lt;b&gt;&lt;font style=&quot;font-size: 20px;&quot;&gt;er&lt;/font&gt;&lt;/b&gt;" style="text;html=1;align=center;verticalAlign=middle;whiteSpace=wrap;rounded=0;" vertex="1" parent="1">
          <mxGeometry x="855" y="125" width="150" height="30" as="geometry" />
        </mxCell>
        <mxCell id="LhowR_q6MDWGsAfgS9AQ-43" value="&lt;span style=&quot;font-size: 20px;&quot;&gt;&lt;b&gt;Gold Layer&lt;/b&gt;&lt;/span&gt;" style="text;html=1;align=center;verticalAlign=middle;whiteSpace=wrap;rounded=0;" vertex="1" parent="1">
          <mxGeometry x="1295" y="130" width="150" height="30" as="geometry" />
        </mxCell>
        <mxCell id="LhowR_q6MDWGsAfgS9AQ-93" value="" style="rounded=1;whiteSpace=wrap;html=1;fillColor=#fff2cc;strokeColor=#d6b656;" vertex="1" parent="1">
          <mxGeometry x="1280" y="195" width="190" height="40" as="geometry" />
        </mxCell>
        <mxCell id="LhowR_q6MDWGsAfgS9AQ-94" value="" style="rounded=1;whiteSpace=wrap;html=1;fillColor=#fff2cc;strokeColor=#d6b656;" vertex="1" parent="1">
          <mxGeometry x="1280" y="400" width="190" height="40" as="geometry" />
        </mxCell>
        <mxCell id="LhowR_q6MDWGsAfgS9AQ-95" value="" style="rounded=1;whiteSpace=wrap;html=1;fillColor=#fff2cc;strokeColor=#d6b656;" vertex="1" parent="1">
          <mxGeometry x="1280" y="516" width="190" height="40" as="geometry" />
        </mxCell>
        <mxCell id="LhowR_q6MDWGsAfgS9AQ-103" value="&lt;font style=&quot;font-size: 15px;&quot;&gt;fact_sales&lt;/font&gt;" style="text;html=1;align=center;verticalAlign=middle;whiteSpace=wrap;rounded=0;" vertex="1" parent="1">
          <mxGeometry x="1340" y="200" width="60" height="30" as="geometry" />
        </mxCell>
        <mxCell id="LhowR_q6MDWGsAfgS9AQ-104" value="&lt;font style=&quot;font-size: 15px;&quot;&gt;dim_customers&lt;/font&gt;&lt;span style=&quot;color: rgba(0, 0, 0, 0); font-family: monospace; font-size: 0px; text-align: start; text-wrap-mode: nowrap;&quot;&gt;%3CmxGraphModel%3E%3Croot%3E%3CmxCell%20id%3D%220%22%2F%3E%3CmxCell%20id%3D%221%22%20parent%3D%220%22%2F%3E%3CmxCell%20id%3D%222%22%20value%3D%22%26lt%3Bfont%20style%3D%26quot%3Bfont-size%3A%2015px%3B%26quot%3B%26gt%3Bfact_sales%26lt%3B%2Ffont%26gt%3B%22%20style%3D%22text%3Bhtml%3D1%3Balign%3Dcenter%3BverticalAlign%3Dmiddle%3BwhiteSpace%3Dwrap%3Brounded%3D0%3B%22%20vertex%3D%221%22%20parent%3D%221%22%3E%3CmxGeometry%20x%3D%221340%22%20y%3D%22200%22%20width%3D%2260%22%20height%3D%2230%22%20as%3D%22geometry%22%2F%3E%3C%2FmxCell%3E%3C%2Froot%3E%3C%2FmxGraphModel%3E&lt;/span&gt;" style="text;html=1;align=center;verticalAlign=middle;whiteSpace=wrap;rounded=0;" vertex="1" parent="1">
          <mxGeometry x="1345" y="405" width="60" height="30" as="geometry" />
        </mxCell>
        <mxCell id="LhowR_q6MDWGsAfgS9AQ-105" value="&lt;font style=&quot;font-size: 15px;&quot;&gt;dim_products&lt;/font&gt;" style="text;html=1;align=center;verticalAlign=middle;whiteSpace=wrap;rounded=0;" vertex="1" parent="1">
          <mxGeometry x="1345" y="521" width="60" height="30" as="geometry" />
        </mxCell>
        <mxCell id="LhowR_q6MDWGsAfgS9AQ-106" value="&lt;h1 style=&quot;margin-top: 0px;&quot;&gt;----Satya&lt;/h1&gt;&lt;div&gt;&lt;br&gt;&lt;/div&gt;" style="text;html=1;whiteSpace=wrap;overflow=hidden;rounded=0;" vertex="1" parent="1">
          <mxGeometry x="1405" y="720" width="105" height="50" as="geometry" />
        </mxCell>
      </root>
    </mxGraphModel>
  </diagram>
</mxfile>
